<svg version="1.1" xmlns="http://www.w3.org/2000/svg" xmlns:xlink="http://www.w3.org/1999/xlink" width="9.86666" height="9.90392" viewBox="0,0,9.86666,9.90392"><defs><linearGradient x1="236.5" y1="172.03335" x2="236.5" y2="180.93727" gradientUnits="userSpaceOnUse" id="color-1"><stop offset="0" stop-color="#f8ff66"/><stop offset="1" stop-color="#ffc566"/></linearGradient><linearGradient x1="236.5" y1="172.03335" x2="236.5" y2="180.93727" gradientUnits="userSpaceOnUse" id="color-2"><stop offset="0" stop-color="#fafa00"/><stop offset="1" stop-color="#ffda00"/></linearGradient></defs><g transform="translate(-231.56667,-171.53335)"><g data-paper-data="{&quot;isPaintingLayer&quot;:true}" fill-rule="nonzero" stroke-linecap="butt" stroke-linejoin="miter" stroke-miterlimit="10" stroke-dasharray="" stroke-dashoffset="0" style="mix-blend-mode: normal"><path d="M232.06667,179.79169c0,-1.90033 0,-5.59905 0,-6.64379c0,-0.5391 0.56196,-1.11455 1.39085,-1.11455c2.00098,0 5.5576,0 6.5196,0c0.47302,0 0.95621,0.52071 0.95621,1.02141c0,1.02898 0,4.84932 0,6.76797c0,0.67493 -0.62953,1.11454 -1.20457,1.11454c-1.04136,0 -4.53761,0 -6.42647,0c-0.74175,0 -1.23562,-0.45354 -1.23562,-1.14559z" fill="url(#color-1)" stroke="url(#color-2)" stroke-width="1"/><g stroke="none" stroke-width="0"><path d="M234.64078,179.45426v-5.49761l0.79832,0.54372v4.47059z" fill="#b1b1b1"/><path d="M235.49588,179.04137l1.58324,-0.01085l0.5601,0.52191l-2.94317,0.02988z" fill="#b1b1b1"/><path d="M234.79417,173.85398l2.94317,0.02988l-0.5601,0.52191l-1.58324,-0.01085z" data-paper-data="{&quot;index&quot;:null}" fill="#b1b1b1"/><path d="M235.44864,177.01771v-0.67321h1.74671l0.34521,0.30151l-0.2832,0.3717z" fill="#b1b1b1"/><path d="M237.41984,174.4902l0.47796,-0.46035l0.89648,0.93076l-0.85961,0.06411z" fill="#b1b1b1"/><path d="M237.69558,176.56462l-0.44691,-0.36721l0.72308,-1.05406l0.85316,-0.05279z" data-paper-data="{&quot;index&quot;:null}" fill="#b1b1b1"/><path d="M237.87258,178.47253l0.85961,0.06411l-0.89648,0.93076l-0.47796,-0.46035z" data-paper-data="{&quot;index&quot;:null}" fill="#b1b1b1"/><path d="M238.76282,178.40668l-0.85316,-0.05279l-0.52128,-1.25585l0.27616,-0.36721z" data-paper-data="{&quot;index&quot;:null}" fill="#b1b1b1"/><g fill="#ffffff"><path d="M234.1751,178.98857v-5.49761l0.79832,0.54372v4.47059z"/><path d="M235.03019,178.57569l1.58324,-0.01085l0.5601,0.52191l-2.94317,0.02988z"/><path d="M234.32849,173.38829l2.94317,0.02988l-0.5601,0.52191l-1.58324,-0.01085z" data-paper-data="{&quot;index&quot;:null}"/><path d="M234.98296,176.55202v-0.67321h1.74671l0.34521,0.30151l-0.2832,0.3717z"/><path d="M236.95416,174.02452l0.47796,-0.46035l0.89648,0.93076l-0.85961,0.06411z"/><path d="M237.22989,176.09893l-0.44691,-0.36721l0.72308,-1.05406l0.85316,-0.05279z" data-paper-data="{&quot;index&quot;:null}"/><path d="M237.40689,178.00684l0.85961,0.06411l-0.89648,0.93076l-0.47796,-0.46035z" data-paper-data="{&quot;index&quot;:null}"/><path d="M238.29713,177.94099l-0.85316,-0.05279l-0.52128,-1.25585l0.27616,-0.36721z" data-paper-data="{&quot;index&quot;:null}"/></g></g></g></g></svg>