<svg version="1.1" xmlns="http://www.w3.org/2000/svg" xmlns:xlink="http://www.w3.org/1999/xlink" width="167.61113" height="35.94445" viewBox="0,0,167.61113,35.94445"><g transform="translate(-156.19444,-162.02778)"><g data-paper-data="{&quot;isPaintingLayer&quot;:true}" fill-rule="nonzero" stroke-linecap="butt" stroke-linejoin="miter" stroke-miterlimit="10" stroke-dasharray="" stroke-dashoffset="0" style="mix-blend-mode: normal"><path d="M156.19445,194.12501c0,-3.79406 0,-17.69939 0,-24.41666c0,-2.2399 1.38055,-3.68055 3.88889,-3.68055c23.52606,0 146.2619,0 159.66667,0c2.33588,0 4.05556,2.07353 4.05556,4.01388c0,3.8319 0,17.5805 0,24.25c0,2.23928 -1.56573,3.68055 -3.72222,3.68055c-12.8897,0 -135.5398,0 -159.75,0c-2.66653,0 -4.13889,-1.97514 -4.13889,-3.84722z" fill="#4457ff" stroke="none" stroke-width="NaN"/><path d="M156.19444,190.12501c0,-3.79407 0,-17.69938 0,-24.41667c0,-2.2399 1.38055,-3.68056 3.88889,-3.68056c23.52606,0 146.2619,0 159.66667,0c2.33588,0 4.05556,2.07353 4.05556,4.01389c0,3.83189 0,17.58049 0,24.25c0,2.23928 -1.56573,3.68056 -3.72222,3.68056c-12.8897,0 -135.5398,0 -159.75,0c-2.66653,0 -4.13889,-1.97514 -4.13889,-3.84722z" fill="#8c98ff" stroke="none" stroke-width="NaN"/><path d="M164.41467,170.11111c0,0 -1.42371,0.8989 -1.90982,1.61712c-0.50419,0.74493 -1.06303,2.77527 -1.06303,2.77527c0,0 -0.53181,-2.06929 -1.02744,-2.80159c-0.49531,-0.73182 -1.9454,-1.5908 -1.9454,-1.5908c0,0 1.45604,-0.81547 1.94529,-1.53833c0.50141,-0.74083 1.02756,-2.85406 1.02756,-2.85406c0,0 0.54379,1.98184 1.04518,2.72264c0.48926,0.72288 1.92767,1.66975 1.92767,1.66975z" fill="#fffe00" stroke="#ffa900" stroke-width="0.5"/><path d="M171.52578,182.59265c0,0 -2.40813,1.52042 -3.23035,2.73525c-0.8528,1.26001 -1.79806,4.69422 -1.79806,4.69422c0,0 -0.89952,-3.50008 -1.73786,-4.73873c-0.83779,-1.23784 -3.29054,-2.69074 -3.29054,-2.69074c0,0 2.46281,-1.37933 3.29034,-2.60201c0.8481,-1.25306 1.73806,-4.82747 1.73806,-4.82747c0,0 0.91978,3.35216 1.76785,4.60519c0.82755,1.22272 3.26055,2.82429 3.26055,2.82429z" fill="#fffe00" stroke="#ffa900" stroke-width="0.5"/><path d="M172.7969,172.37042c0,0 -0.82349,0.51993 -1.10465,0.93535c-0.29163,0.43087 -0.61487,1.60524 -0.61487,1.60524c0,0 -0.3076,-1.19689 -0.59428,-1.62046c-0.28649,-0.42329 -1.12524,-0.92013 -1.12524,-0.92013c0,0 0.84218,-0.47168 1.12517,-0.88978c0.29002,-0.4285 0.59435,-1.65081 0.59435,-1.65081c0,0 0.31453,1.14631 0.60453,1.5748c0.28299,0.41812 1.11498,0.96579 1.11498,0.96579z" fill="#fffe00" stroke="#ffa900" stroke-width="0.5"/><g fill="#fffe00" stroke="#ffa900" stroke-width="0.5"><path d="M310.3512,186.46306c0,0 1.42371,-0.8989 1.90982,-1.61712c0.50419,-0.74493 1.06303,-2.77527 1.06303,-2.77527c0,0 0.53181,2.06929 1.02744,2.80159c0.49531,0.73182 1.9454,1.5908 1.9454,1.5908c0,0 -1.45604,0.81547 -1.94529,1.53833c-0.50141,0.74083 -1.02756,2.85406 -1.02756,2.85406c0,0 -0.54379,-1.98184 -1.04518,-2.72264c-0.48926,-0.72288 -1.92767,-1.66975 -1.92767,-1.66975z" data-paper-data="{&quot;index&quot;:null}"/><path d="M303.24009,173.98153c0,0 2.40813,-1.52042 3.23035,-2.73525c0.8528,-1.26001 1.79806,-4.69422 1.79806,-4.69422c0,0 0.89952,3.50009 1.73786,4.73874c0.83779,1.23784 3.29054,2.69074 3.29054,2.69074c0,0 -2.46281,1.37933 -3.29034,2.60201c-0.8481,1.25306 -1.73806,4.82747 -1.73806,4.82747c0,0 -0.91978,-3.35216 -1.76785,-4.60519c-0.82755,-1.22272 -3.26055,-2.82429 -3.26055,-2.82429z" data-paper-data="{&quot;index&quot;:null}"/><path d="M301.96898,184.20375c0,0 0.82349,-0.51993 1.10465,-0.93535c0.29163,-0.43087 0.61487,-1.60524 0.61487,-1.60524c0,0 0.3076,1.19689 0.59428,1.62046c0.28649,0.42329 1.12523,0.92013 1.12523,0.92013c0,0 -0.84218,0.47168 -1.12517,0.88978c-0.29001,0.4285 -0.59435,1.65081 -0.59435,1.65081c0,0 -0.31453,-1.14631 -0.60453,-1.5748c-0.28299,-0.41812 -1.11498,-0.96579 -1.11498,-0.96579z" data-paper-data="{&quot;index&quot;:null}"/></g></g></g></svg>