<svg version="1.1" xmlns="http://www.w3.org/2000/svg" xmlns:xlink="http://www.w3.org/1999/xlink" width="53.3064" height="53.30642" viewBox="0,0,53.3064,53.30642"><g transform="translate(-213.3468,-153.34679)"><g data-paper-data="{&quot;isPaintingLayer&quot;:true}" fill-rule="nonzero" stroke-linejoin="miter" stroke-miterlimit="10" stroke-dasharray="" stroke-dashoffset="0" style="mix-blend-mode: normal"><path d="M214.5968,200.36016c0,-5.71066 0,-28.65698 0,-39.72832c0,-3.66995 3.57235,-6.03505 5.89587,-6.03505c10.7366,0 32.92409,0 38.9199,0c2.92453,0 5.99063,2.46745 5.99063,6.26604c0,10.94458 0,32.93942 0,38.80441c0,1.7998 -2.20091,5.73597 -5.64417,5.73597c-10.66459,0 -33.24689,0 -39.26636,0c-2.03832,0 -5.89587,-2.51892 -5.89587,-5.04303z" fill="#9966ff" stroke="#5500ff" stroke-width="2.5" stroke-linecap="butt"/><path d="M236.81234,169.51103l-0.08971,14.50933" fill="none" stroke="#b3b3b3" stroke-width="5" stroke-linecap="round"/><path d="M236.73311,185.04301l-0.06619,10.70571" fill="none" stroke="#b3b3b3" stroke-width="5" stroke-linecap="round"/><path d="M236.29513,169.80739c1.20317,-0.50901 2.5483,-0.79371 3.9678,-0.79371c5.12892,0 9.28673,3.71684 9.28673,8.30176c0,4.58494 -4.1578,8.30178 -9.28673,8.30178c-1.24603,0 -2.43474,-0.21937 -3.52044,-0.61726" fill="none" stroke="#b3b3b3" stroke-width="5" stroke-linecap="butt"/><path d="M234.34453,167.56277l-0.08971,14.50933" fill="none" stroke="#ffffff" stroke-width="5" stroke-linecap="round"/><path d="M234.19912,193.80046l0.06619,-10.70571" fill="none" stroke="#ffffff" stroke-width="5" stroke-linecap="round"/><path d="M233.82733,167.85912c1.20317,-0.50901 2.54828,-0.79371 3.96778,-0.79371c5.12892,0 9.28673,3.71684 9.28673,8.30176c0,4.58494 -4.1578,8.30178 -9.28673,8.30178c-1.24603,0 -2.43474,-0.21937 -3.52044,-0.61726" fill="none" stroke="#ffffff" stroke-width="5" stroke-linecap="butt"/></g></g></svg>